<?xml version="1.0" encoding="UTF-8"?>
<svg version="1.1" xmlns="http://www.w3.org/2000/svg" width="512" height="512">
<path d="M0 0 C1.03365375 0.00043474 2.06730751 0.00086947 3.1322841 0.00131738 C4.32486174 -0.00788021 5.51743938 -0.0170778 6.74615574 -0.02655411 C8.06286634 -0.01626698 9.37957695 -0.00597986 10.73618788 0.004619 C12.14391345 0.00144419 13.55163599 -0.00348165 14.95934999 -0.01001382 C18.83679504 -0.02287607 22.7138243 -0.01067806 26.59124213 0.00551474 C30.76919467 0.0186424 34.94709971 0.0087776 39.12505811 0.00175035 C47.31297344 -0.00834619 55.50072754 0.00296501 63.68862284 0.02145095 C73.2157533 0.04218973 82.74284862 0.04207936 92.26999741 0.04110579 C109.26355803 0.04010392 126.25704344 0.05844508 143.25057691 0.08747423 C159.75579919 0.11565478 176.26095525 0.12981564 192.76620191 0.12848985 C193.78284843 0.12840994 194.79949494 0.12833003 195.84694893 0.12824769 C197.36923301 0.12812663 197.36923301 0.12812663 198.9222703 0.12800312 C217.69116379 0.12662477 236.46002904 0.13839536 255.22891339 0.15630955 C261.87648645 0.16235187 268.52405434 0.16446981 275.17162985 0.16537416 C283.26732232 0.16673598 291.36296723 0.17563115 299.45863951 0.19403978 C303.59249371 0.20329749 307.72628691 0.2093588 311.86015218 0.20685136 C315.63937196 0.20467012 319.41845655 0.21164343 323.1976481 0.22614841 C325.22309047 0.23152611 327.24855147 0.22704057 329.2739954 0.22228432 C331.05895024 0.23195766 331.05895024 0.23195766 332.87996477 0.24182642 C334.43020187 0.24393969 334.43020187 0.24393969 336.0117569 0.24609566 C338.44320387 0.49909532 338.44320387 0.49909532 340.44320387 2.49909532 C340.64095444 4.90165523 340.71281592 7.18904847 340.69767946 9.59283674 C340.70088594 10.33544168 340.70409242 11.07804663 340.70739606 11.84315476 C340.71576589 14.35736459 340.70974761 16.8713405 340.70390028 19.38555467 C340.70691779 21.19593167 340.71080524 23.0063074 340.71549284 24.81668085 C340.72583328 29.81168296 340.72357575 34.80661379 340.71931225 39.80162191 C340.71685593 45.18070716 340.7258455 50.55977475 340.73334974 55.93885362 C340.74612931 66.48473893 340.74788639 77.03059882 340.74554948 87.57649057 C340.74376981 96.14430835 340.74550839 104.71211839 340.74977392 113.27993524 C340.75036911 114.49718168 340.7509643 115.71442811 340.75157752 116.9685608 C340.75278921 119.44102354 340.75400335 121.91348628 340.7552199 124.38594902 C340.76610796 147.59691272 340.76392694 170.80786191 340.75783505 194.01882643 C340.75266459 215.2753966 340.76392253 236.53192096 340.78293327 257.78848206 C340.80228255 279.58989346 340.81057281 301.39128315 340.80681002 323.19270319 C340.80489357 335.44249263 340.8074286 347.69224308 340.82152456 359.94202554 C340.83340232 370.37008974 340.83488395 380.79809093 340.82273439 391.22615593 C340.81682029 396.55100811 340.8158157 401.87574485 340.82773679 407.20058954 C340.83851022 412.0692038 340.83559516 416.93760504 340.82147511 421.80620898 C340.81880443 423.57335091 340.82126808 425.34050909 340.82921097 427.10763519 C340.83921683 429.49852318 340.83098216 431.88865621 340.81793398 434.27951276 C340.82524332 434.97536768 340.83255267 435.67122259 340.84008351 436.38816401 C340.80768453 439.22640527 340.74388059 441.07444922 339.07757723 443.42777151 C336.65817933 445.0136751 334.74390012 444.85870258 331.87020582 444.83967149 C330.15877142 444.8393316 330.15877142 444.8393316 328.41276258 444.83898485 C326.56578024 444.81575906 326.56578024 444.81575906 324.68148512 444.79206407 C323.4205554 444.78781923 322.15962568 444.78357439 320.86048597 444.77920091 C317.51145443 444.76524159 314.16303628 444.73829636 310.81417555 444.70508897 C307.39565033 444.67437637 303.97706171 444.66069308 300.55843824 444.6455797 C293.85319038 444.61246755 287.14823254 444.5622355 280.44320387 444.49909532 C280.4498657 445.29200975 280.45652754 446.08492418 280.46339124 446.90186632 C280.5235165 454.37640309 280.56918531 461.8508225 280.59864038 469.32553804 C280.61429266 473.16832619 280.63552259 477.01091442 280.66952223 480.85358751 C280.70213182 484.56239095 280.72006018 488.27100216 280.7278356 491.97993791 C280.73337628 493.39453473 280.74419599 494.8091211 280.76039404 496.22363603 C280.78218687 498.2056508 280.78342943 500.18785922 280.78378004 502.16999376 C280.79377279 503.86209978 280.79377279 503.86209978 280.80396742 505.58838975 C280.3878537 508.94567048 279.80714069 510.11430213 277.44320387 512.49909532 C274.88640773 512.99819064 274.88640773 512.99819064 271.75412363 512.99687326 C270.56154599 513.00607085 269.36896835 513.01526844 268.14025199 513.02474475 C266.82354139 513.01445762 265.50683078 513.0041705 264.15021986 512.99357164 C262.74249428 512.99674646 261.33477174 513.0016723 259.92705774 513.00820446 C256.04961269 513.02106671 252.17258343 513.0088687 248.2951656 512.9926759 C244.11721306 512.97954824 239.93930802 512.98941304 235.76134962 512.99644029 C227.57343429 513.00653683 219.38568019 512.99522563 211.19778489 512.97673969 C201.67065444 512.95600091 192.14355911 512.95611128 182.61641032 512.95708485 C165.62284971 512.95808672 148.6293643 512.93974556 131.63583082 512.91071641 C115.13060855 512.88253586 98.62545248 512.86837501 82.12020582 512.86970079 C81.1035593 512.8697807 80.08691279 512.86986061 79.0394588 512.86994295 C78.02460275 512.87002366 77.0097467 512.87010437 75.96413743 512.87018752 C57.19524395 512.87156587 38.4263787 512.85979528 19.65749435 512.84188109 C13.00992128 512.83583877 6.36235339 512.83372083 -0.28522211 512.83281648 C-8.38091459 512.83145466 -16.4765595 512.82255949 -24.57223178 512.80415086 C-28.70608598 512.79489315 -32.83987918 512.78883184 -36.97374445 512.79133928 C-40.75296423 512.79352052 -44.53204881 512.78654722 -48.31124037 512.77204223 C-50.33668274 512.76666453 -52.36214374 512.77115008 -54.38758767 512.77590632 C-55.57755756 512.76945743 -56.76752745 512.76300854 -57.99355704 512.75636423 C-59.02704844 512.75495538 -60.06053984 512.75354653 -61.12534916 512.75209498 C-63.55679613 512.49909532 -63.55679613 512.49909532 -65.55679613 510.49909532 C-65.7545467 508.09653541 -65.82640819 505.80914217 -65.81127173 503.4053539 C-65.81447821 502.66274896 -65.81768468 501.92014401 -65.82098833 501.15503588 C-65.82935816 498.64082605 -65.82333988 496.12685014 -65.81749254 493.61263597 C-65.82051005 491.80225897 -65.82439751 489.99188324 -65.82908511 488.18150979 C-65.83942555 483.18650768 -65.83716801 478.19157685 -65.83290452 473.19656873 C-65.8304482 467.81748348 -65.83943777 462.4384159 -65.84694201 457.05933702 C-65.85972157 446.51345171 -65.86147866 435.96759182 -65.85914174 425.42170007 C-65.85736208 416.85388229 -65.85910066 408.28607225 -65.86336619 399.7182554 C-65.86396138 398.50100896 -65.86455656 397.28376253 -65.86516979 396.02962984 C-65.86638148 393.5571671 -65.86759562 391.08470436 -65.86881217 388.61224162 C-65.87970023 365.40127792 -65.87751921 342.19032873 -65.87142732 318.97936421 C-65.86625685 297.72279404 -65.87751479 276.46626968 -65.89652554 255.20970858 C-65.91587482 233.40829719 -65.92416508 211.6069075 -65.92040229 189.80548745 C-65.91848583 177.55569801 -65.92102086 165.30594757 -65.93511683 153.0561651 C-65.94699458 142.62810091 -65.94847622 132.20009971 -65.93632666 121.77203471 C-65.93041255 116.44718253 -65.92940797 111.12244579 -65.94132906 105.7976011 C-65.95210248 100.92898684 -65.94918743 96.0605856 -65.93506738 91.19198167 C-65.9323967 89.42483973 -65.93486035 87.65768155 -65.94280324 85.89055545 C-65.95280909 83.49966746 -65.94457443 81.10953444 -65.93152624 78.71867788 C-65.93883559 78.02282297 -65.94614494 77.32696805 -65.95367578 76.61002663 C-65.92127679 73.77178537 -65.85747285 71.92374142 -64.1911695 69.57041913 C-61.77177159 67.98451554 -59.85749239 68.13948806 -56.98379809 68.15851915 C-55.27236368 68.15885904 -55.27236368 68.15885904 -53.52635485 68.15920579 C-52.29503329 68.17468965 -51.06371172 68.19017351 -49.79507738 68.20612657 C-47.90368281 68.21249383 -47.90368281 68.21249383 -45.97407824 68.21898973 C-42.6250467 68.23294905 -39.27662855 68.25989428 -35.92776781 68.29310167 C-32.5092426 68.32381427 -29.09065398 68.33749757 -25.67203051 68.35261095 C-18.96678264 68.38572309 -12.26182481 68.43595514 -5.55679613 68.49909532 C-5.56345797 67.70618089 -5.5701198 66.91326646 -5.57698351 66.09632432 C-5.63710877 58.62178756 -5.68277758 51.14736814 -5.71223265 43.6726526 C-5.72788493 39.82986445 -5.74911486 35.98727622 -5.78311449 32.14460313 C-5.81572409 28.43579969 -5.83365245 24.72718848 -5.84142786 21.01825273 C-5.84696855 19.60365591 -5.85778825 18.18906954 -5.8739863 16.77455461 C-5.89577914 14.79253984 -5.8970217 12.81033142 -5.89737231 10.82819688 C-5.90403414 9.7001262 -5.91069597 8.57205553 -5.91755968 7.40980089 C-5.40345652 3.26192358 -4.29658179 0.83870741 0 0 Z " fill="#D5E2FE" transform="translate(118.55679613351822,-0.4990953207015991)"/>
<path d="M0 0 C105.93 0 211.86 0 321 0 C321 138.6 321 277.2 321 420 C304.83 420 288.66 420 272 420 C271.99120064 413.22270859 271.99120064 413.22270859 271.98222351 406.3085022 C271.92709823 364.91707896 271.85717218 323.52570178 271.77101372 282.13433108 C271.75974497 276.71422877 271.74860661 271.29412619 271.73754883 265.87402344 C271.7342433 264.25539247 271.7342433 264.25539247 271.730871 262.60406189 C271.69545683 245.11023321 271.67061599 227.61640458 271.64965298 210.1225533 C271.62792368 192.18469801 271.59490074 174.24688941 271.55129844 156.30907381 C271.5247321 145.23216615 271.50707348 134.15531673 271.50065396 123.07837878 C271.49541526 115.49211767 271.47924974 107.90592996 271.45433434 100.31970812 C271.440267 95.9367478 271.4311679 91.55391901 271.43499184 87.17093468 C271.43838193 83.16393446 271.42815489 79.15721603 271.40676448 75.15027361 C271.40146091 73.69534479 271.40129864 72.24038697 271.40660437 70.78545816 C271.41305119 68.81829135 271.39950707 66.85108856 271.38476086 64.88396645 C271.38286225 63.78809357 271.38096365 62.6922207 271.37900752 61.56313956 C271.25393504 60.7173035 271.12886256 59.87146745 271 59 C267.82983564 56.88655709 267.06995194 56.74844452 263.44540119 56.73828697 C262.50587803 56.73082148 261.56635487 56.72335599 260.59836131 56.71566427 C259.56432569 56.717599 258.53029008 56.71953374 257.46492004 56.7215271 C256.36796474 56.7157347 255.27100943 56.7099423 254.14081305 56.70397437 C250.44646647 56.68690047 246.75224425 56.68409149 243.05786133 56.68115234 C240.41705099 56.67185926 237.77625463 56.66177923 235.13545227 56.65071106 C229.44040774 56.62841713 223.74538125 56.6134167 218.05030251 56.60334396 C209.81614121 56.58876991 201.58204272 56.56323672 193.34791823 56.53501268 C179.98920494 56.48952147 166.63048262 56.45291631 153.27172852 56.421875 C140.29352227 56.39169898 127.31533814 56.35735309 114.3371582 56.31738281 C113.13756824 56.31369049 113.13756824 56.31369049 111.91374413 56.30992357 C107.90182472 56.29754916 103.88990558 56.28509259 99.87798655 56.27259517 C66.58535052 56.1689925 33.29269947 56.08143343 0 56 C0 37.52 0 19.04 0 0 Z " fill="#AFC8E2" transform="translate(126,12)"/>
<path d="M0 0 C1.03365375 0.00043474 2.06730751 0.00086947 3.1322841 0.00131738 C4.32486174 -0.00788021 5.51743938 -0.0170778 6.74615574 -0.02655411 C8.06286634 -0.01626698 9.37957695 -0.00597986 10.73618788 0.004619 C12.14391345 0.00144419 13.55163599 -0.00348165 14.95934999 -0.01001382 C18.83679504 -0.02287607 22.7138243 -0.01067806 26.59124213 0.00551474 C30.76919467 0.0186424 34.94709971 0.0087776 39.12505811 0.00175035 C47.31297344 -0.00834619 55.50072754 0.00296501 63.68862284 0.02145095 C73.2157533 0.04218973 82.74284862 0.04207936 92.26999741 0.04110579 C109.26355803 0.04010392 126.25704344 0.05844508 143.25057691 0.08747423 C159.75579919 0.11565478 176.26095525 0.12981564 192.76620191 0.12848985 C193.78284843 0.12840994 194.79949494 0.12833003 195.84694893 0.12824769 C197.36923301 0.12812663 197.36923301 0.12812663 198.9222703 0.12800312 C217.69116379 0.12662477 236.46002904 0.13839536 255.22891339 0.15630955 C261.87648645 0.16235187 268.52405434 0.16446981 275.17162985 0.16537416 C283.26732232 0.16673598 291.36296723 0.17563115 299.45863951 0.19403978 C303.59249371 0.20329749 307.72628691 0.2093588 311.86015218 0.20685136 C315.63937196 0.20467012 319.41845655 0.21164343 323.1976481 0.22614841 C325.22309047 0.23152611 327.24855147 0.22704057 329.2739954 0.22228432 C331.05895024 0.23195766 331.05895024 0.23195766 332.87996477 0.24182642 C334.43020187 0.24393969 334.43020187 0.24393969 336.0117569 0.24609566 C338.44320387 0.49909532 338.44320387 0.49909532 340.44320387 2.49909532 C340.64095444 4.90165523 340.71281592 7.18904847 340.69767946 9.59283674 C340.70088594 10.33544168 340.70409242 11.07804663 340.70739606 11.84315476 C340.71576589 14.35736459 340.70974761 16.8713405 340.70390028 19.38555467 C340.70691779 21.19593167 340.71080524 23.0063074 340.71549284 24.81668085 C340.72583328 29.81168296 340.72357575 34.80661379 340.71931225 39.80162191 C340.71685593 45.18070716 340.7258455 50.55977475 340.73334974 55.93885362 C340.74612931 66.48473893 340.74788639 77.03059882 340.74554948 87.57649057 C340.74376981 96.14430835 340.74550839 104.71211839 340.74977392 113.27993524 C340.75036911 114.49718168 340.7509643 115.71442811 340.75157752 116.9685608 C340.75278921 119.44102354 340.75400335 121.91348628 340.7552199 124.38594902 C340.76610796 147.59691272 340.76392694 170.80786191 340.75783505 194.01882643 C340.75266459 215.2753966 340.76392253 236.53192096 340.78293327 257.78848206 C340.80228255 279.58989346 340.81057281 301.39128315 340.80681002 323.19270319 C340.80489357 335.44249263 340.8074286 347.69224308 340.82152456 359.94202554 C340.83340232 370.37008974 340.83488395 380.79809093 340.82273439 391.22615593 C340.81682029 396.55100811 340.8158157 401.87574485 340.82773679 407.20058954 C340.83851022 412.0692038 340.83559516 416.93760504 340.82147511 421.80620898 C340.81880443 423.57335091 340.82126808 425.34050909 340.82921097 427.10763519 C340.83921683 429.49852318 340.83098216 431.88865621 340.81793398 434.27951276 C340.82524332 434.97536768 340.83255267 435.67122259 340.84008351 436.38816401 C340.80768453 439.22640527 340.74388059 441.07444922 339.07757723 443.42777151 C336.65817933 445.0136751 334.74390012 444.85870258 331.87020582 444.83967149 C330.15877142 444.8393316 330.15877142 444.8393316 328.41276258 444.83898485 C326.56578024 444.81575906 326.56578024 444.81575906 324.68148512 444.79206407 C323.4205554 444.78781923 322.15962568 444.78357439 320.86048597 444.77920091 C317.51145443 444.76524159 314.16303628 444.73829636 310.81417555 444.70508897 C307.39565033 444.67437637 303.97706171 444.66069308 300.55843824 444.6455797 C293.85319038 444.61246755 287.14823254 444.5622355 280.44320387 444.49909532 C280.4498657 445.29200975 280.45652754 446.08492418 280.46339124 446.90186632 C280.5235165 454.37640309 280.56918531 461.8508225 280.59864038 469.32553804 C280.61429266 473.16832619 280.63552259 477.01091442 280.66952223 480.85358751 C280.70213182 484.56239095 280.72006018 488.27100216 280.7278356 491.97993791 C280.73337628 493.39453473 280.74419599 494.8091211 280.76039404 496.22363603 C280.78218687 498.2056508 280.78342943 500.18785922 280.78378004 502.16999376 C280.79377279 503.86209978 280.79377279 503.86209978 280.80396742 505.58838975 C280.3878537 508.94567048 279.80714069 510.11430213 277.44320387 512.49909532 C274.88640773 512.99819064 274.88640773 512.99819064 271.75412363 512.99687326 C270.56154599 513.00607085 269.36896835 513.01526844 268.14025199 513.02474475 C266.82354139 513.01445762 265.50683078 513.0041705 264.15021986 512.99357164 C262.74249428 512.99674646 261.33477174 513.0016723 259.92705774 513.00820446 C256.04961269 513.02106671 252.17258343 513.0088687 248.2951656 512.9926759 C244.11721306 512.97954824 239.93930802 512.98941304 235.76134962 512.99644029 C227.57343429 513.00653683 219.38568019 512.99522563 211.19778489 512.97673969 C201.67065444 512.95600091 192.14355911 512.95611128 182.61641032 512.95708485 C165.62284971 512.95808672 148.6293643 512.93974556 131.63583082 512.91071641 C115.13060855 512.88253586 98.62545248 512.86837501 82.12020582 512.86970079 C81.1035593 512.8697807 80.08691279 512.86986061 79.0394588 512.86994295 C78.02460275 512.87002366 77.0097467 512.87010437 75.96413743 512.87018752 C57.19524395 512.87156587 38.4263787 512.85979528 19.65749435 512.84188109 C13.00992128 512.83583877 6.36235339 512.83372083 -0.28522211 512.83281648 C-8.38091459 512.83145466 -16.4765595 512.82255949 -24.57223178 512.80415086 C-28.70608598 512.79489315 -32.83987918 512.78883184 -36.97374445 512.79133928 C-40.75296423 512.79352052 -44.53204881 512.78654722 -48.31124037 512.77204223 C-50.33668274 512.76666453 -52.36214374 512.77115008 -54.38758767 512.77590632 C-55.57755756 512.76945743 -56.76752745 512.76300854 -57.99355704 512.75636423 C-59.02704844 512.75495538 -60.06053984 512.75354653 -61.12534916 512.75209498 C-63.55679613 512.49909532 -63.55679613 512.49909532 -65.55679613 510.49909532 C-65.7545467 508.09653541 -65.82640819 505.80914217 -65.81127173 503.4053539 C-65.81447821 502.66274896 -65.81768468 501.92014401 -65.82098833 501.15503588 C-65.82935816 498.64082605 -65.82333988 496.12685014 -65.81749254 493.61263597 C-65.82051005 491.80225897 -65.82439751 489.99188324 -65.82908511 488.18150979 C-65.83942555 483.18650768 -65.83716801 478.19157685 -65.83290452 473.19656873 C-65.8304482 467.81748348 -65.83943777 462.4384159 -65.84694201 457.05933702 C-65.85972157 446.51345171 -65.86147866 435.96759182 -65.85914174 425.42170007 C-65.85736208 416.85388229 -65.85910066 408.28607225 -65.86336619 399.7182554 C-65.86396138 398.50100896 -65.86455656 397.28376253 -65.86516979 396.02962984 C-65.86638148 393.5571671 -65.86759562 391.08470436 -65.86881217 388.61224162 C-65.87970023 365.40127792 -65.87751921 342.19032873 -65.87142732 318.97936421 C-65.86625685 297.72279404 -65.87751479 276.46626968 -65.89652554 255.20970858 C-65.91587482 233.40829719 -65.92416508 211.6069075 -65.92040229 189.80548745 C-65.91848583 177.55569801 -65.92102086 165.30594757 -65.93511683 153.0561651 C-65.94699458 142.62810091 -65.94847622 132.20009971 -65.93632666 121.77203471 C-65.93041255 116.44718253 -65.92940797 111.12244579 -65.94132906 105.7976011 C-65.95210248 100.92898684 -65.94918743 96.0605856 -65.93506738 91.19198167 C-65.9323967 89.42483973 -65.93486035 87.65768155 -65.94280324 85.89055545 C-65.95280909 83.49966746 -65.94457443 81.10953444 -65.93152624 78.71867788 C-65.93883559 78.02282297 -65.94614494 77.32696805 -65.95367578 76.61002663 C-65.92127679 73.77178537 -65.85747285 71.92374142 -64.1911695 69.57041913 C-61.77177159 67.98451554 -59.85749239 68.13948806 -56.98379809 68.15851915 C-55.27236368 68.15885904 -55.27236368 68.15885904 -53.52635485 68.15920579 C-52.29503329 68.17468965 -51.06371172 68.19017351 -49.79507738 68.20612657 C-47.90368281 68.21249383 -47.90368281 68.21249383 -45.97407824 68.21898973 C-42.6250467 68.23294905 -39.27662855 68.25989428 -35.92776781 68.29310167 C-32.5092426 68.32381427 -29.09065398 68.33749757 -25.67203051 68.35261095 C-18.96678264 68.38572309 -12.26182481 68.43595514 -5.55679613 68.49909532 C-5.56345797 67.70618089 -5.5701198 66.91326646 -5.57698351 66.09632432 C-5.63710877 58.62178756 -5.68277758 51.14736814 -5.71223265 43.6726526 C-5.72788493 39.82986445 -5.74911486 35.98727622 -5.78311449 32.14460313 C-5.81572409 28.43579969 -5.83365245 24.72718848 -5.84142786 21.01825273 C-5.84696855 19.60365591 -5.85778825 18.18906954 -5.8739863 16.77455461 C-5.89577914 14.79253984 -5.8970217 12.81033142 -5.89737231 10.82819688 C-5.90403414 9.7001262 -5.91069597 8.57205553 -5.91755968 7.40980089 C-5.40345652 3.26192358 -4.29658179 0.83870741 0 0 Z M7.44320387 12.49909532 C7.44320387 30.97909532 7.44320387 49.45909532 7.44320387 68.49909532 C19.59741163 68.52882432 19.59741163 68.52882432 31.99715894 68.55915391 C57.9030854 68.62391869 83.80897488 68.69844822 109.71485632 68.77914693 C113.73669133 68.79166627 117.75852662 68.80409897 121.78036207 68.81647813 C122.5810599 68.81894413 123.38175772 68.82141012 124.20671912 68.82395084 C137.18299962 68.8637085 150.15928886 68.89644251 163.13559482 68.92659514 C176.44379168 68.95767477 189.75195134 68.99626913 203.0601064 69.04188538 C211.27641265 69.0698101 219.49269158 69.0918258 227.70903262 69.10635783 C233.33812051 69.11687453 238.96715561 69.1346698 244.59620378 69.15826236 C247.84714809 69.17167052 251.09800357 69.18072257 254.34897703 69.18330896 C257.86879682 69.18661208 261.38835663 69.20203652 264.90812391 69.22062242 C266.45917734 69.21772032 266.45917734 69.21772032 268.04156518 69.21475959 C268.98108834 69.22222508 269.9206115 69.22969057 270.88860506 69.23738229 C271.70158629 69.23966061 272.51456751 69.24193894 273.35218453 69.2442863 C275.44320387 69.49909532 275.44320387 69.49909532 278.44320387 71.49909532 C278.82221138 74.06223488 278.82221138 74.06223488 278.82796472 77.38306177 C278.83742126 78.64454967 278.8468778 79.90603757 278.85662091 81.20575237 C278.85199042 82.61868928 278.84708387 84.03162531 278.84193128 85.44456041 C278.84736556 86.93534466 278.85411493 88.42612462 278.86207318 89.91689754 C278.88018585 94.02839672 278.87953083 98.13971612 278.87594372 102.25124586 C278.87532225 106.67936663 278.89191754 111.10742581 278.9064607 115.53551805 C278.92929935 123.21244446 278.94114086 130.88932535 278.94558996 138.56628358 C278.95203845 149.66597158 278.97495279 160.76557708 279.00193325 171.86523192 C279.04525406 189.87208105 279.07519054 207.87892673 279.09676832 225.88581407 C279.11776218 243.38159962 279.14502331 260.87735682 279.18075269 278.37311876 C279.18295152 279.45089871 279.18515034 280.52867867 279.1874158 281.63911863 C279.19848505 287.0458273 279.20967794 292.4525357 279.2209323 297.85924399 C279.31419232 342.73917084 279.3849335 387.61911055 279.44320387 432.49909532 C295.61320387 432.49909532 311.78320387 432.49909532 328.44320387 432.49909532 C328.44320387 293.89909532 328.44320387 155.29909532 328.44320387 12.49909532 C222.51320387 12.49909532 116.58320387 12.49909532 7.44320387 12.49909532 Z M-53.55679613 80.49909532 C-53.55679613 219.09909532 -53.55679613 357.69909532 -53.55679613 500.49909532 C52.37320387 500.49909532 158.30320387 500.49909532 267.44320387 500.49909532 C267.44320387 361.89909532 267.44320387 223.29909532 267.44320387 80.49909532 C161.51320387 80.49909532 55.58320387 80.49909532 -53.55679613 80.49909532 Z " fill="#010102" transform="translate(118.55679613351822,-0.4990953207015991)"/>
<path d="M0 0 C1.00073296 -0.01029488 1.00073296 -0.01029488 2.02168274 -0.02079773 C4.22105348 -0.03905908 6.41971054 -0.03522999 8.61914062 -0.02954102 C10.15084057 -0.03410279 11.68253847 -0.03940835 13.2142334 -0.04542542 C16.42204105 -0.05435487 19.62959972 -0.05193498 22.83740234 -0.04199219 C26.94681369 -0.03049548 31.05536665 -0.0507246 35.16466522 -0.07990932 C38.32685802 -0.09825975 41.48884459 -0.09798138 44.65107727 -0.0922718 C46.1661347 -0.09211848 47.68120601 -0.09817182 49.19621277 -0.11056328 C51.31494964 -0.1254529 53.43209403 -0.11481453 55.55078125 -0.09765625 C56.75561157 -0.09749008 57.96044189 -0.09732391 59.20178223 -0.09715271 C62.27539062 0.40405273 62.27539062 0.40405273 64.66233826 2.00938416 C66.82349041 5.21773824 66.78928224 7.36334049 66.80883789 11.22045898 C66.82176125 12.2358223 66.82176125 12.2358223 66.83494568 13.271698 C66.85760295 15.50370794 66.85086877 17.73446216 66.84179688 19.96655273 C66.84703236 21.52067437 66.85330857 23.07479281 66.86058044 24.62890625 C66.8709839 27.88385994 66.86642397 31.13837643 66.85180664 34.39331055 C66.83461169 38.56344252 66.85812125 42.73219757 66.89329624 46.9021759 C66.91526145 50.11072917 66.91383118 53.31895242 66.90553093 56.52755737 C66.90471104 58.06494661 66.91158178 59.60235998 66.92630196 61.13967896 C66.94373546 63.28986159 66.92922172 65.43756348 66.90649414 67.58764648 C66.90553238 68.8102417 66.90457062 70.03283691 66.90357971 71.29248047 C66.27539062 74.40405273 66.27539062 74.40405273 64.15759277 76.79872131 C60.68161603 78.73477382 58.49723991 78.9052052 54.52905273 78.90576172 C53.54273109 78.9138662 53.54273109 78.9138662 52.53648376 78.9221344 C50.37476842 78.93458668 48.21439406 78.9181581 46.05273438 78.90014648 C44.54488556 78.90030154 43.03703635 78.90179157 41.52919006 78.90455627 C38.37434192 78.90593862 35.21994933 78.893409 32.06518555 78.87060547 C28.02427482 78.84219639 23.98411926 78.84496671 19.94315243 78.85769558 C16.83156396 78.86465429 13.72014967 78.85686179 10.60858345 78.84443855 C9.11866486 78.83992761 7.62872756 78.83958415 6.1388073 78.84350395 C4.05626022 78.84641883 1.97474992 78.82989907 -0.10766602 78.80810547 C-1.29171524 78.80270248 -2.47576447 78.7972995 -3.69569397 78.79173279 C-7.09593694 78.3565254 -8.50145075 78.02184722 -10.72460938 75.40405273 C-11.23254395 72.33007812 -11.23254395 72.33007812 -11.2421875 68.50170898 C-11.24919678 67.8038327 -11.25620605 67.10595642 -11.26342773 66.38693237 C-11.28103534 64.07973456 -11.26937651 61.77376304 -11.25585938 59.46655273 C-11.25855353 57.86376713 -11.26243531 56.26098313 -11.26745605 54.65820312 C-11.2733548 51.29891399 -11.26477647 47.94005025 -11.24609375 44.58081055 C-11.22330345 40.27283367 -11.23642459 35.9658535 -11.26038361 31.65791321 C-11.27483173 28.34819008 -11.27024025 25.03870361 -11.25987244 21.72897339 C-11.2572024 20.14053225 -11.26048468 18.55206969 -11.26979065 16.96365356 C-11.27994071 14.74398826 -11.26448 12.5259411 -11.2421875 10.30639648 C-11.23900513 9.04303467 -11.23582275 7.77967285 -11.23254395 6.47802734 C-10.72460938 3.40405273 -10.72460938 3.40405273 -9.11254883 1.49790955 C-5.95033856 0.04937816 -3.47941463 0.01560321 0 0 Z " fill="#030304" transform="translate(102.724609375,202.595947265625)"/>
<path d="M0 0 C1.04659538 -0.0076664 1.04659538 -0.0076664 2.11433411 -0.01548767 C4.42665118 -0.02941672 6.73867129 -0.02842443 9.05102539 -0.02612305 C10.65523897 -0.03000828 12.25945152 -0.03434259 13.86366272 -0.03910828 C17.22880383 -0.04657768 20.59384005 -0.04627411 23.95898438 -0.04101562 C28.27465931 -0.03522114 32.58990505 -0.05214771 36.905509 -0.0753603 C40.21947242 -0.09008184 43.53333213 -0.09097149 46.84732246 -0.08785057 C48.43856214 -0.08836462 50.02980749 -0.09361801 51.62101555 -0.10366249 C53.84528472 -0.11597893 56.06871336 -0.10926485 58.29296875 -0.09765625 C59.55934677 -0.09828568 60.82572479 -0.0989151 62.13047791 -0.0995636 C65.21118164 0.2746582 65.21118164 0.2746582 67.11831665 1.3789978 C68.77355205 4.25013397 68.60068626 6.67959217 68.61523438 9.97753906 C68.62209763 10.65430191 68.62896088 11.33106476 68.6360321 12.02833557 C68.6543343 14.26560443 68.65045793 16.50217429 68.64477539 18.73950195 C68.64933578 20.29505136 68.65464093 21.85059874 68.66065979 23.40614319 C68.66959772 26.66700421 68.66716041 29.92762043 68.65722656 33.18847656 C68.64573927 37.36629298 68.66594032 41.54326388 68.6951437 45.7209692 C68.71349548 48.93377547 68.71321529 52.14637878 68.70750618 55.35922432 C68.70735282 56.89940133 68.7134094 58.43959197 68.72579765 59.97971916 C68.74068663 62.13447867 68.73004849 64.28767212 68.71289062 66.44238281 C68.71272446 67.66799423 68.71255829 68.89360565 68.71238708 70.15635681 C68.21118164 73.2746582 68.21118164 73.2746582 66.60011292 75.6703186 C63.41297358 77.81071247 61.31442942 77.77583926 57.48657227 77.77636719 C56.48583931 77.78447166 56.48583931 77.78447166 55.46488953 77.79273987 C53.26528198 77.80522085 51.06698509 77.78874242 48.86743164 77.77075195 C47.33573335 77.77090696 45.80403467 77.77239619 44.27233887 77.77516174 C41.0644392 77.77654544 37.85698679 77.76399323 34.64916992 77.74121094 C30.53985294 77.71282592 26.43127901 77.71556378 22.32190704 77.72830105 C19.15970528 77.73526029 15.99767488 77.72746624 12.835495 77.71504402 C11.32045652 77.71053187 9.80539963 77.71019067 8.2903595 77.71410942 C6.17178726 77.71702417 4.05423434 77.70050408 1.93579102 77.67871094 C0.73096069 77.67330795 -0.47386963 77.66790497 -1.71520996 77.66233826 C-5.1397546 77.23039395 -6.5583143 76.91668876 -8.78881836 74.2746582 C-9.28329468 71.19395447 -9.28329468 71.19395447 -9.2746582 67.35644531 C-9.2784549 66.65696274 -9.28225159 65.95748016 -9.28616333 65.23680115 C-9.29357295 62.92474526 -9.27218472 60.6139461 -9.24975586 58.30200195 C-9.2473718 56.69682462 -9.24646603 55.09164447 -9.24697876 53.48646545 C-9.2438502 50.12296067 -9.22727967 46.75988198 -9.20043945 43.39648438 C-9.16643194 39.07966885 -9.15881158 34.76332108 -9.16032982 30.44638729 C-9.15978669 27.13244643 -9.14882922 23.81860835 -9.13432693 20.50470161 C-9.12795189 18.91265198 -9.12401839 17.32059068 -9.12253952 15.72852898 C-9.11821543 13.50664182 -9.10073533 11.28525637 -9.0793457 9.06347656 C-9.06791031 7.16510292 -9.06791031 7.16510292 -9.0562439 5.2283783 C-8.5206956 -0.68676275 -5.08226242 0.01850213 0 0 Z " fill="#010101" transform="translate(100.788818359375,299.725341796875)"/>
<path d="M0 0 C1.00073296 -0.01029488 1.00073296 -0.01029488 2.02168274 -0.02079773 C4.22105348 -0.03905908 6.41971054 -0.03522999 8.61914062 -0.02954102 C10.15084057 -0.03410279 11.68253847 -0.03940835 13.2142334 -0.04542542 C16.42204105 -0.05435487 19.62959972 -0.05193498 22.83740234 -0.04199219 C26.94681369 -0.03049548 31.05536665 -0.0507246 35.16466522 -0.07990932 C38.32685802 -0.09825975 41.48884459 -0.09798138 44.65107727 -0.0922718 C46.1661347 -0.09211848 47.68120601 -0.09817182 49.19621277 -0.11056328 C51.31494964 -0.1254529 53.43209403 -0.11481453 55.55078125 -0.09765625 C56.75561157 -0.09749008 57.96044189 -0.09732391 59.20178223 -0.09715271 C62.27539062 0.40405273 62.27539062 0.40405273 64.6643219 2.00839233 C66.82811932 5.22596072 66.77657549 7.3705614 66.77709961 11.23632812 C66.78520409 12.25410088 66.78520409 12.25410088 66.79347229 13.29243469 C66.80595307 15.52930676 66.78947657 17.76489014 66.77148438 20.00170898 C66.77163936 21.55822314 66.7731283 23.11473768 66.77589417 24.67124939 C66.77727779 27.93042092 66.76472535 31.18915216 66.74194336 34.44824219 C66.71353477 38.62715586 66.7163027 42.80533937 66.72903347 46.98430729 C66.73598531 50.19707993 66.72820753 53.40968355 66.71577644 56.62243462 C66.71125875 58.16341949 66.71092792 59.70442249 66.71484184 61.24540901 C66.71774993 63.39770909 66.70126917 65.54899937 66.67944336 67.70117188 C66.67404037 68.9259877 66.66863739 70.15080353 66.66307068 71.41273499 C66.27539062 74.40405273 66.27539062 74.40405273 65.18252563 76.29971313 C62.2498815 77.99788082 59.72576798 77.77804147 56.35717773 77.77636719 C55.65769516 77.78001785 54.95821259 77.78366852 54.23753357 77.78742981 C51.92568681 77.79553533 49.6145409 77.78192724 47.30273438 77.76733398 C45.69755555 77.76681543 44.09237608 77.76733294 42.48719788 77.7688446 C39.12377437 77.76875489 35.76059058 77.75832515 32.3972168 77.74023438 C28.08041561 77.71752884 23.7639642 77.71700638 19.44711971 77.72375202 C16.13319271 77.72708891 12.81934585 77.72046755 9.50543404 77.71062279 C7.91338075 77.70676701 6.32131856 77.70562413 4.7292614 77.70720863 C2.50740352 77.70757838 0.28599894 77.69498573 -1.93579102 77.67871094 C-3.20137344 77.67410355 -4.46695587 77.66949615 -5.77088928 77.66474915 C-8.72460938 77.40405273 -8.72460938 77.40405273 -10.72460938 75.40405273 C-10.99203491 72.45033264 -10.99203491 72.45033264 -11.01513672 68.61523438 C-11.02185394 67.91750412 -11.02857117 67.21977386 -11.03549194 66.50090027 C-11.05452924 64.18859791 -11.0583989 61.87658488 -11.06054688 59.56420898 C-11.06697063 57.95999531 -11.07369866 56.35578283 -11.08071899 54.75157166 C-11.09270594 51.3864368 -11.09639835 48.02140471 -11.09521484 44.65625 C-11.09501152 40.34047063 -11.12232019 36.02534881 -11.15675926 31.70972538 C-11.17897754 28.39575667 -11.18305397 25.08194749 -11.18199539 21.76791191 C-11.18435877 20.17665781 -11.1932236 18.5853998 -11.20866013 16.99421883 C-11.22821983 14.76976363 -11.22252337 12.54674308 -11.21044922 10.32226562 C-11.21472427 8.42269859 -11.21472427 8.42269859 -11.21908569 6.48475647 C-10.72460938 3.40405273 -10.72460938 3.40405273 -9.11453247 1.49691772 C-5.95133929 0.05045148 -3.47952021 0.01560369 0 0 Z " fill="#000000" transform="translate(102.724609375,106.595947265625)"/>
<path d="M0 0 C1.03218407 -0.00788544 1.03218407 -0.00788544 2.08522034 -0.01593018 C4.35977885 -0.02913383 6.6336375 -0.02039136 8.90820312 -0.01025391 C10.48856745 -0.01227455 12.06893086 -0.01518591 13.64929199 -0.01895142 C16.96143471 -0.02337524 20.27333471 -0.01694201 23.58544922 -0.00292969 C27.83274403 0.01416245 32.07947014 0.00432155 36.32674408 -0.01364708 C39.5901112 -0.02448346 42.85334331 -0.0210393 46.11671448 -0.0132637 C47.68282641 -0.01126128 49.24895056 -0.01372246 50.81504822 -0.02070236 C53.00333156 -0.02831472 55.19069174 -0.01671701 57.37890625 0 C58.62450317 0.00238678 59.8701001 0.00477356 61.15344238 0.00723267 C64.18945312 0.38818359 64.18945312 0.38818359 66.08985901 1.49351501 C67.75518631 4.36297682 67.57894345 6.78987617 67.59350586 10.09106445 C67.60036911 10.7678273 67.60723236 11.44459015 67.61430359 12.14186096 C67.63260578 14.37912982 67.62872942 16.61569968 67.62304688 18.85302734 C67.62760727 20.40857675 67.63291241 21.96412413 67.63893127 23.51966858 C67.6478692 26.7805296 67.64543189 30.04114582 67.63549805 33.30200195 C67.62401075 37.47981837 67.64421181 41.65678928 67.67341518 45.83449459 C67.69176696 49.04730087 67.69148678 52.25990417 67.68577766 55.47274971 C67.6856243 57.01292672 67.69168089 58.55311736 67.70406914 60.09324455 C67.71895812 62.24800407 67.70831997 64.40119751 67.69116211 66.5559082 C67.69099594 67.78151962 67.69082977 69.00713104 67.69065857 70.2698822 C67.18945312 73.38818359 67.18945312 73.38818359 65.58511353 75.78384399 C62.3673282 77.93874893 60.21846348 77.88936907 56.35717773 77.88989258 C55.67866257 77.89529556 55.0001474 77.90069855 54.30107117 77.90626526 C52.0641991 77.91874604 49.82861572 77.90226954 47.59179688 77.88427734 C46.03528272 77.88443233 44.47876817 77.88592127 42.92225647 77.88868713 C39.66308494 77.89007076 36.4043537 77.87751832 33.14526367 77.85473633 C28.96635 77.82632774 24.78816648 77.82909567 20.60919857 77.84182644 C17.39642593 77.84877828 14.18382231 77.8410005 10.97107124 77.82856941 C9.43008637 77.82405172 7.88908337 77.82372089 6.34809685 77.82763481 C4.19579677 77.8305429 2.04450649 77.81406214 -0.10766602 77.79223633 C-1.33248184 77.78683334 -2.55729767 77.78143036 -3.81922913 77.77586365 C-6.81054688 77.38818359 -6.81054688 77.38818359 -8.70521545 76.28858948 C-10.39209032 73.38833092 -10.1923369 70.9142715 -10.19873047 67.57763672 C-10.20398743 66.88951401 -10.20924438 66.2013913 -10.21466064 65.49241638 C-10.2278643 63.21785787 -10.21912183 60.94399922 -10.20898438 58.66943359 C-10.21100502 57.08906927 -10.21391638 55.50870586 -10.21768188 53.92834473 C-10.22210571 50.61620201 -10.21567248 47.30430201 -10.20166016 43.9921875 C-10.18456802 39.74489269 -10.19440892 35.49816658 -10.21237755 31.25089264 C-10.22321393 27.98752552 -10.21976976 24.72429341 -10.21199417 21.46092224 C-10.20999175 19.89481031 -10.21245293 18.32868616 -10.21943283 16.7625885 C-10.22704518 14.57430516 -10.21544748 12.38694498 -10.19873047 10.19873047 C-10.19634369 8.95313354 -10.19395691 7.70753662 -10.1914978 6.42419434 C-9.81054688 3.38818359 -9.81054688 3.38818359 -8.71194458 1.48678589 C-5.80993701 -0.18995547 -3.33344226 0.00638745 0 0 Z " fill="#000000" transform="translate(101.810546875,395.61181640625)"/>
<path d="M0 0 C17.82 0 35.64 0 54 0 C54 17.82 54 35.64 54 54 C36.18 54 18.36 54 0 54 C0 36.18 0 18.36 0 0 Z " fill="#89C8E7" transform="translate(103,215)"/>
<path d="M0 0 C1.40897804 0.00333092 1.40897804 0.00333092 2.84642029 0.00672913 C4.4603064 0.0069104 4.4603064 0.0069104 6.10679626 0.00709534 C7.81567017 0.01476929 7.81567017 0.01476929 9.55906677 0.02259827 C11.1203833 0.02410889 11.1203833 0.02410889 12.71324158 0.02565002 C16.61889236 0.03090051 20.52452749 0.04486163 24.43016052 0.05775452 C37.51672302 0.08869202 37.51672302 0.08869202 50.86766052 0.12025452 C50.86766052 17.94025452 50.86766052 35.76025452 50.86766052 54.12025452 C33.04766052 54.12025452 15.22766052 54.12025452 -3.13233948 54.12025452 C-3.15296448 45.39587952 -3.17358948 36.67150452 -3.19483948 27.68275452 C-3.20394348 24.92488586 -3.21304749 22.16701721 -3.22242737 19.32557678 C-3.22534632 17.15427194 -3.22789492 14.98296655 -3.22999573 12.81166077 C-3.23511169 11.6724115 -3.24022766 10.53316223 -3.24549866 9.35939026 C-3.24561951 8.28346619 -3.24574036 7.20754211 -3.24586487 6.09901428 C-3.24808548 5.15969559 -3.25030609 4.22037689 -3.25259399 3.25259399 C-3.08984169 0.36668864 -2.88590536 0.1627523 0 0 Z " fill="#88C7E5" transform="translate(106.13233947753906,406.87974548339844)"/>
<path d="M0 0 C1.40897804 0.00333092 1.40897804 0.00333092 2.84642029 0.00672913 C4.4603064 0.0069104 4.4603064 0.0069104 6.10679626 0.00709534 C7.81567017 0.01476929 7.81567017 0.01476929 9.55906677 0.02259827 C11.1203833 0.02410889 11.1203833 0.02410889 12.71324158 0.02565002 C16.61889236 0.03090051 20.52452749 0.04486163 24.43016052 0.05775452 C37.51672302 0.08869202 37.51672302 0.08869202 50.86766052 0.12025452 C50.86766052 17.94025452 50.86766052 35.76025452 50.86766052 54.12025452 C33.04766052 54.12025452 15.22766052 54.12025452 -3.13233948 54.12025452 C-3.15296448 45.39587952 -3.17358948 36.67150452 -3.19483948 27.68275452 C-3.20394348 24.92488586 -3.21304749 22.16701721 -3.22242737 19.32557678 C-3.22534632 17.15427194 -3.22789492 14.98296655 -3.22999573 12.81166077 C-3.23511169 11.6724115 -3.24022766 10.53316223 -3.24549866 9.35939026 C-3.24561951 8.28346619 -3.24574036 7.20754211 -3.24586487 6.09901428 C-3.24808548 5.15969559 -3.25030609 4.22037689 -3.25259399 3.25259399 C-3.08984169 0.36668864 -2.88590536 0.1627523 0 0 Z " fill="#89C8E6" transform="translate(106.13233947753906,310.87974548339844)"/>
<path d="M0 0 C17.82 0 35.64 0 54 0 C54 17.82 54 35.64 54 54 C45.275625 54.020625 36.55125 54.04125 27.5625 54.0625 C24.80463135 54.071604 22.0467627 54.08070801 19.20532227 54.09008789 C17.03401742 54.09300684 14.86271204 54.09555545 12.69140625 54.09765625 C11.55215698 54.10277222 10.41290771 54.10788818 9.23913574 54.11315918 C8.16321167 54.11328003 7.0872876 54.11340088 5.97875977 54.11352539 C5.03944107 54.115746 4.10012238 54.11796661 3.13233948 54.12025452 C1 54 1 54 0 53 C-0.09346915 51.34261557 -0.11744977 49.68125356 -0.11352539 48.02124023 C-0.11340454 46.94531616 -0.11328369 45.86939209 -0.11315918 44.76086426 C-0.10804321 43.62161499 -0.10292725 42.48236572 -0.09765625 41.30859375 C-0.09664917 40.26771606 -0.09564209 39.22683838 -0.09460449 38.15441895 C-0.08935401 34.24876816 -0.07539289 30.34313303 -0.0625 26.4375 C-0.041875 17.713125 -0.02125 8.98875 0 0 Z " fill="#89C7E6" transform="translate(103,119)"/>
<path d="M0 0 C0.98707105 -0.00807831 0.98707105 -0.00807831 1.99408293 -0.01631981 C4.19745849 -0.03061904 6.40023493 -0.02349125 8.6036377 -0.01637268 C10.18392927 -0.0220752 11.76421673 -0.029039 13.34449768 -0.03717041 C17.63577414 -0.05512885 21.92684642 -0.05392857 26.21814919 -0.04822803 C29.79934589 -0.04514044 33.38050314 -0.05122374 36.96169424 -0.05726677 C45.40861886 -0.07131884 53.85544235 -0.06974469 62.30236816 -0.05836487 C71.02072346 -0.04687903 79.73877131 -0.06096551 88.45708609 -0.08776134 C95.93999193 -0.1099002 103.42280113 -0.11655994 110.9057374 -0.11068493 C115.37607084 -0.10731026 119.84620712 -0.10976429 124.31651306 -0.12693596 C128.51910903 -0.14237453 132.72124849 -0.13848427 136.92382622 -0.11963081 C138.46697844 -0.11593651 140.01016426 -0.11907788 141.5532856 -0.1295166 C143.65853085 -0.14267176 145.76225251 -0.13123065 147.86743164 -0.11352539 C149.04581856 -0.11331611 150.22420547 -0.11310682 151.43830109 -0.1128912 C155.06149949 0.49259055 156.28150406 1.45058243 158.43371582 4.38768005 C158.37121582 7.51268005 158.37121582 7.51268005 157.43371582 10.38768005 C153.83310227 12.78808909 152.22461474 12.64097769 147.94299316 12.64837646 C146.95002007 12.65411479 146.95002007 12.65411479 145.93698692 12.65996903 C143.71446207 12.67030402 141.49219532 12.66630605 139.26965332 12.66233826 C137.67803711 12.66668442 136.086423 12.67186725 134.49481201 12.67782593 C130.16845642 12.69123641 125.84218807 12.69179241 121.51581573 12.68926263 C117.90724417 12.68819446 114.29869037 12.69307224 110.6901226 12.69786805 C102.17951 12.70896999 93.66894154 12.70939656 85.1583252 12.70335388 C76.37015586 12.69731024 67.58214648 12.70963341 58.79400444 12.73092395 C51.25509556 12.74851839 43.7162377 12.75454479 36.17730904 12.75128621 C31.67181171 12.74947 27.1664285 12.75214314 22.66094971 12.76600075 C18.42561261 12.77853973 14.19052564 12.77667252 9.95519257 12.76358986 C8.39871894 12.76121604 6.84222793 12.76398744 5.28577423 12.77221298 C3.16503535 12.78261463 1.04514607 12.77463415 -1.07556152 12.76190186 C-2.85753433 12.76215347 -2.85753433 12.76215347 -4.67550659 12.76241016 C-7.56628418 12.38768005 -7.56628418 12.38768005 -9.4446106 11.05179119 C-11.22058535 8.41696105 -11.01553729 6.46827282 -10.56628418 3.38768005 C-7.31446406 0.04270863 -4.53222531 0.00934569 0 0 Z " fill="#010102" transform="translate(201.5662841796875,460.61231994628906)"/>
<path d="M0 0 C0.66127649 -0.00538554 1.32255299 -0.01077108 2.00386816 -0.01631981 C4.22416691 -0.03065045 6.44387375 -0.02348349 8.66419983 -0.01637268 C10.25419597 -0.02207362 11.84418802 -0.02903681 13.43417358 -0.03717041 C17.75649949 -0.05514791 22.07862289 -0.05392482 26.40097499 -0.04822803 C30.00697472 -0.04514268 33.61293519 -0.05122134 37.21892935 -0.05726677 C45.72480779 -0.07132557 54.23058582 -0.06973957 62.73646545 -0.05836487 C71.51671518 -0.04688284 80.29665948 -0.06095758 89.07686895 -0.08776134 C96.61070947 -0.10990065 104.14445401 -0.11655971 111.67832476 -0.11068493 C116.17997171 -0.10730982 120.68142287 -0.10976695 125.18304253 -0.12693596 C129.41599281 -0.14237488 133.64848987 -0.13848385 137.88142204 -0.11963081 C139.43586133 -0.11593637 140.99033396 -0.11907827 142.54474258 -0.1295166 C144.66536429 -0.14267103 146.78447326 -0.13123111 148.9050293 -0.11352539 C150.68561942 -0.11321146 150.68561942 -0.11321146 152.50218105 -0.1128912 C156.12756235 0.48925438 157.34489552 1.4677826 159.51600647 4.38768005 C159.44773191 7.186937 158.97744616 8.73762785 157.36028957 11.0157938 C154.62574384 13.04990976 152.45170192 12.76839226 149.06997681 12.77536011 C148.08418739 12.78343841 148.08418739 12.78343841 147.07848305 12.79167992 C144.87200263 12.80601001 142.66611789 12.79884375 140.45960999 12.79173279 C138.8794659 12.79743376 137.29932594 12.80439696 135.7191925 12.81253052 C131.42372488 12.8305077 127.12846102 12.82928499 122.83296704 12.82358813 C119.24933517 12.82050274 115.66574281 12.8265815 112.08211654 12.83262688 C103.62897561 12.84668557 95.17593571 12.84509977 86.72279358 12.83372498 C77.99707471 12.82224298 69.27166317 12.83631766 60.5459848 12.86312145 C53.05885289 12.885261 45.57181756 12.89191976 38.08465523 12.88604504 C33.61095349 12.88266999 29.13744876 12.88512669 24.66377449 12.90229607 C20.45708806 12.91773537 16.25085767 12.91384354 12.04418945 12.89499092 C10.49942552 12.89129658 8.95462803 12.89443808 7.40989494 12.90487671 C5.30240721 12.91803189 3.19644145 12.90659063 1.08901978 12.8888855 C-0.09066596 12.88867621 -1.2703517 12.88846693 -2.48578548 12.8882513 C-6.10595503 12.28383935 -7.28933351 11.2778577 -9.48399353 8.38768005 C-9.96711523 5.55796722 -10.00381829 4.141925 -8.36189938 1.75956631 C-5.59135263 -0.26443026 -3.40715578 0.00697662 0 0 Z " fill="#030303" transform="translate(200.48399353027344,364.61231994628906)"/>
<path d="M0 0 C0.66606561 -0.00538554 1.33213122 -0.01077108 2.01838064 -0.01631981 C4.25483153 -0.03065093 6.49069482 -0.0234834 8.72717285 -0.01637268 C10.32864357 -0.02207354 11.93011022 -0.0290367 13.53157043 -0.03717041 C17.88481953 -0.05514735 22.23786756 -0.0539251 26.59114265 -0.04822803 C30.22208984 -0.04514306 33.85299801 -0.05122081 37.48393965 -0.05726677 C46.04730935 -0.07132495 54.61057931 -0.06973966 63.1739502 -0.05836487 C72.01670304 -0.04687875 80.85915277 -0.06096461 89.70186567 -0.08776134 C97.28749466 -0.10989036 104.87302831 -0.11656217 112.45868731 -0.11068493 C116.99215991 -0.10730785 121.52543812 -0.10978012 126.05888367 -0.12693596 C130.32055708 -0.14235887 134.58177998 -0.13850182 138.84343529 -0.11963081 C140.40958251 -0.11593212 141.97576277 -0.11909052 143.54187965 -0.1295166 C145.67598754 -0.14264191 147.80858521 -0.13125733 149.94262695 -0.11352539 C151.13798317 -0.11331611 152.33333939 -0.11310682 153.56491852 -0.1128912 C156.47131348 0.38768005 156.47131348 0.38768005 158.38326263 2.25884914 C159.47131348 4.38768005 159.47131348 4.38768005 159.40881348 6.95018005 C158.23986756 9.98943943 157.27214608 10.75220684 154.47131348 12.38768005 C151.49151611 12.76799679 151.49151611 12.76799679 147.94299316 12.77536011 C147.28902935 12.78074565 146.63506554 12.78613118 145.96128464 12.79167992 C143.77172739 12.8059784 141.58277309 12.79885156 139.39318848 12.79173279 C137.82274896 12.79743535 136.25231359 12.80439917 134.68188477 12.81253052 C130.41746658 12.83048851 126.15325386 12.82928877 121.8888092 12.82358813 C118.32998036 12.82050048 114.77119121 12.82658392 111.21236801 12.83262688 C102.8181809 12.8466788 94.42409554 12.84510492 86.02990723 12.83372498 C77.36608278 12.82223914 68.70256771 12.83632564 60.03878403 12.86312145 C52.60258679 12.88526055 45.1664868 12.89192 37.73025894 12.88604504 C33.28787071 12.88267042 28.84568088 12.88512401 24.40332031 12.90229607 C20.22698818 12.91773503 16.05111541 12.91384396 11.87480164 12.89499092 C10.34132476 12.89129672 8.80781408 12.89443769 7.27436829 12.90487671 C5.18225695 12.91803263 3.0916786 12.90659016 0.99963379 12.8888855 C-0.17137878 12.88867621 -1.34239136 12.88846693 -2.54888916 12.8882513 C-6.15602351 12.28229475 -7.33918085 11.26609607 -9.52868652 8.38768005 C-10.01156657 5.55938263 -10.04760714 4.14249213 -8.40938568 1.75956631 C-5.62690907 -0.27012642 -3.41957911 0.00695125 0 0 Z " fill="#060607" transform="translate(200.5286865234375,268.61231994628906)"/>
<path d="M0 0 C0.66606561 -0.00538554 1.33213122 -0.01077108 2.01838064 -0.01631981 C4.25483153 -0.03065093 6.49069482 -0.0234834 8.72717285 -0.01637268 C10.32864357 -0.02207354 11.93011022 -0.0290367 13.53157043 -0.03717041 C17.88481953 -0.05514735 22.23786756 -0.0539251 26.59114265 -0.04822803 C30.22208984 -0.04514306 33.85299801 -0.05122081 37.48393965 -0.05726677 C46.04730935 -0.07132495 54.61057931 -0.06973966 63.1739502 -0.05836487 C72.01670304 -0.04687875 80.85915277 -0.06096461 89.70186567 -0.08776134 C97.28749466 -0.10989036 104.87302831 -0.11656217 112.45868731 -0.11068493 C116.99215991 -0.10730785 121.52543812 -0.10978012 126.05888367 -0.12693596 C130.32055708 -0.14235887 134.58177998 -0.13850182 138.84343529 -0.11963081 C140.40958251 -0.11593212 141.97576277 -0.11909052 143.54187965 -0.1295166 C145.67598754 -0.14264191 147.80858521 -0.13125733 149.94262695 -0.11352539 C151.13798317 -0.11331611 152.33333939 -0.11310682 153.56491852 -0.1128912 C156.47131348 0.38768005 156.47131348 0.38768005 158.39107513 2.25494289 C159.47131348 4.38768005 159.47131348 4.38768005 159.28381348 7.01268005 C158.47131348 9.38768005 158.47131348 9.38768005 156.47131348 11.38768005 C153.68796635 11.64215565 153.68796635 11.64215565 150.06288147 11.64837646 C149.39767028 11.65220201 148.7324591 11.65602756 148.04708999 11.65996903 C145.80764052 11.67032642 143.56844613 11.6663018 141.32897949 11.66233826 C139.72765871 11.66668324 138.12634 11.67186566 136.52502441 11.67782593 C132.16761906 11.69125045 127.81030025 11.69179077 123.45287824 11.68926263 C119.81950361 11.68819522 116.18614666 11.69307037 112.5527758 11.69786805 C103.98320924 11.70897523 95.4136865 11.70939388 86.84411621 11.70335388 C77.99405209 11.69731223 69.14414688 11.70962716 60.29410988 11.73092395 C52.70426624 11.7485188 45.11447328 11.75454465 37.52460998 11.75128621 C32.98779893 11.74946978 28.45110121 11.75214518 23.91430855 11.76600075 C19.6486166 11.7785401 15.383173 11.77667215 11.11748505 11.76358986 C9.54972438 11.76121598 7.98194644 11.76398767 6.41420555 11.77221298 C4.27808853 11.78261424 2.14281508 11.77463437 0.00672913 11.76190186 C-1.78825343 11.76215347 -1.78825343 11.76215347 -3.61949825 11.76241016 C-6.52868652 11.38768005 -6.52868652 11.38768005 -8.4137125 10.02054119 C-10.01536858 7.67494217 -9.9450801 6.16363725 -9.52868652 3.38768005 C-7.00078231 -0.31109189 -4.24773655 0.00863471 0 0 Z " fill="#000000" transform="translate(200.5286865234375,172.61231994628906)"/>
<path d="M0 0 C3.12890625 0.59375 3.12890625 0.59375 5.12890625 2.59375 C5.62552779 6.69862794 5.64317081 8.83420605 3.29638672 12.30029297 C2.0339917 13.55543701 2.0339917 13.55543701 0.74609375 14.8359375 C-0.17429688 15.75632812 -1.0946875 16.67671875 -2.04296875 17.625 C-2.52830078 18.09164063 -3.01363281 18.55828125 -3.51367188 19.0390625 C-4.99230573 20.46509673 -6.43624931 21.92048743 -7.87890625 23.3828125 C-16.02477672 31.39291846 -16.02477672 31.39291846 -21.87109375 31.59375 C-24.30859375 29.59375 -24.30859375 29.59375 -26.87109375 26.59375 C-28.11965619 25.4463504 -29.36971936 24.30058219 -30.62109375 23.15625 C-32.9716023 20.79547722 -33.859078 19.62779461 -34.99609375 16.40625 C-34.85083986 13.1380374 -34.10964385 11.92184211 -31.87109375 9.59375 C-25.63244385 9.96806899 -23.34786097 11.61792416 -18.87109375 15.59375 C-18.45335693 15.13935547 -18.03562012 14.68496094 -17.60522461 14.21679688 C-15.69179746 12.157361 -13.75099911 10.12586117 -11.80859375 8.09375 C-10.82342773 7.02060547 -10.82342773 7.02060547 -9.81835938 5.92578125 C-4.80210082 0.73654826 -4.80210082 0.73654826 0 0 Z " fill="#020404" transform="translate(144.87109375,322.40625)"/>
<path d="M0 0 C2 2 2 2 2.39672852 5.29516602 C1.91462128 9.79730586 0.80345999 11.09643978 -2.34765625 14.27734375 C-3.26353516 15.20224609 -4.17941406 16.12714844 -5.12304688 17.08007812 C-5.60636475 17.54873291 -6.08968262 18.0173877 -6.58764648 18.50024414 C-8.05920071 19.93428482 -9.48961652 21.40189694 -10.91992188 22.87695312 C-11.84482422 23.79283203 -12.76972656 24.70871094 -13.72265625 25.65234375 C-14.56578369 26.48757568 -15.40891113 27.32280762 -16.27758789 28.18334961 C-19.77040052 30.51408396 -21.87760784 30.49886724 -26 30 C-28.33955701 28.34555623 -29.96261145 26.9807643 -31.875 24.9375 C-32.3596875 24.47150391 -32.844375 24.00550781 -33.34375 23.52539062 C-36.86873305 19.90686752 -37.82583773 16.99665535 -38 12 C-36.9375 10.0625 -36.9375 10.0625 -35 9 C-32.25 8.4375 -32.25 8.4375 -29 9 C-27.15136719 10.36743164 -27.15136719 10.36743164 -25.296875 12.03515625 C-24.67651367 12.58695557 -24.05615234 13.13875488 -23.41699219 13.70727539 C-22.94938477 14.13387451 -22.48177734 14.56047363 -22 15 C-21.33411865 14.32626343 -21.33411865 14.32626343 -20.65478516 13.63891602 C-18.64746397 11.61084393 -16.63629001 9.58663584 -14.625 7.5625 C-13.92632812 6.85544922 -13.22765625 6.14839844 -12.5078125 5.41992188 C-11.8375 4.74638672 -11.1671875 4.07285156 -10.4765625 3.37890625 C-9.85861816 2.7557251 -9.24067383 2.13254395 -8.60400391 1.49047852 C-5.56488424 -1.33354364 -3.89188751 -1.07026906 0 0 Z " fill="#030405" transform="translate(148,227)"/>
<path d="M0 0 C1 1 1 1 1.33642578 4.23486328 C0.92651651 8.82239646 -0.15876933 10.03666267 -3.3828125 13.2421875 C-4.30320313 14.16257812 -5.22359375 15.08296875 -6.171875 16.03125 C-6.65720703 16.49789063 -7.14253906 16.96453125 -7.64257812 17.4453125 C-9.12121198 18.87134673 -10.56515556 20.32673743 -12.0078125 21.7890625 C-20.1042305 29.7505402 -20.1042305 29.7505402 -26 30 C-29.7571951 27.64188055 -32.53726766 24.51129027 -35.375 21.125 C-36.08398438 20.30257813 -36.79296875 19.48015625 -37.5234375 18.6328125 C-39 16 -39 16 -38.9140625 12.8046875 C-38 10 -38 10 -35 8 C-32.0625 8.0625 -32.0625 8.0625 -29 9 C-26.625 11.5625 -26.625 11.5625 -25 14 C-20.70402861 12.35009794 -17.99482354 9.18257193 -14.875 5.9375 C-7.75747374 -1.41044977 -7.75747374 -1.41044977 0 0 Z " fill="#020404" transform="translate(149,420)"/>
<path d="M0 0 C2 2 2 2 2.5625 4.625 C1.69609881 9.82340712 -1.36042281 12.33686567 -5 16 C-6.0964607 17.12229176 -7.19280624 18.24469604 -8.2890625 19.3671875 C-18.5957353 29.83729899 -18.5957353 29.83729899 -22.83203125 30.328125 C-26.8686222 29.91003173 -27.96713021 28.69350658 -30.6875 25.75 C-31.43386719 24.96109375 -32.18023437 24.1721875 -32.94921875 23.359375 C-37.90346908 17.65962795 -37.90346908 17.65962795 -38.375 14.4375 C-38 12 -38 12 -36.875 10.1875 C-33.97370638 8.35001404 -32.38577839 8.41399989 -29 9 C-27.15136719 10.36743164 -27.15136719 10.36743164 -25.296875 12.03515625 C-24.67651367 12.58695557 -24.05615234 13.13875488 -23.41699219 13.70727539 C-22.94938477 14.13387451 -22.48177734 14.56047363 -22 15 C-21.33411865 14.32626343 -21.33411865 14.32626343 -20.65478516 13.63891602 C-18.64746397 11.61084393 -16.63629001 9.58663584 -14.625 7.5625 C-13.92632812 6.85544922 -13.22765625 6.14839844 -12.5078125 5.41992188 C-11.8375 4.74638672 -11.1671875 4.07285156 -10.4765625 3.37890625 C-9.85861816 2.7557251 -9.24067383 2.13254395 -8.60400391 1.49047852 C-5.56488424 -1.33354364 -3.89188751 -1.07026906 0 0 Z " fill="#030405" transform="translate(148,131)"/>
</svg>
